<svg xmlns="http://www.w3.org/2000/svg" viewBox="0 0 24 24" id="building"><g data-name="23"><rect width="8" height="10" x="2" y="12" fill="#fff"></rect><polygon fill="#fff" points="18 4 18 22 10 22 10 12 6 12 6 4 18 4"></polygon><polygon fill="#fff" points="22 9 22 22 18 22 18 8 22 9"></polygon><rect width="10" height="3" x="7" y="1" fill="#b9d9f4"></rect><path fill="#292932" d="M19,7.22V3H5v8H1V23H23V8.22ZM9,21H3V13H9Zm8,0H11V11H7V5H17Zm4,0H19V9.28l2,.5Z"></path><rect width="2" height="2" x="9" y="7" fill="#292932"></rect><rect width="2" height="2" x="13" y="7" fill="#292932"></rect><rect width="2" height="2" x="13" y="11" fill="#292932"></rect><rect width="2" height="2" x="13" y="15" fill="#292932"></rect><rect width="4" height="4" x="3" y="15" fill="#0084f0"></rect></g></svg>