<svg xmlns="http://www.w3.org/2000/svg" viewBox="0 0 512 512" id="croc"><path fill="#0d77bd" d="M480 472h-32a8 8 0 0 0 0 16h32a8 8 0 0 0 0-16zm-21.33-272h-21.32a29.36 29.36 0 0 0-26.12 16h-26.49a237.84 237.84 0 0 0-19.09-48H416a40 40 0 0 0 40-40 8 8 0 0 0-8-8h-64a24 24 0 0 1-22.63-16H448a8 8 0 0 0 8-8V64a24 24 0 0 0-46.63-8h-50.16A40.06 40.06 0 0 0 320 24h-32a40 40 0 0 0-40 40v240a40 40 0 0 1-80 0 56.07 56.07 0 0 0-56-56H32a8 8 0 0 0-2.53 15.59l74.11 24.71A24 24 0 0 1 120 311.06v23.07A57.68 57.68 0 0 0 138 376H96a8 8 0 0 0-8 8v88H32a8 8 0 0 0 0 16h384a8 8 0 0 0 0-16h-24v-36.69l18.34 18.35A8 8 0 0 0 424 448v-96a40 40 0 0 0-36.3-39.82 211 211 0 0 0 4.22-48.18h19.3a29.35 29.35 0 0 0 26.11 16h21.34A29.37 29.37 0 0 0 488 250.67v-21.34A29.37 29.37 0 0 0 458.67 200zM376 472H104v-80h272zm32-120v76.69l-16-16V384a8 8 0 0 0-8-8H177.89A41.91 41.91 0 0 1 136 334.13v-23.07a40 40 0 0 0-27.35-37.94L81.32 264H112a40 40 0 0 1 40 40 56 56 0 1 0 112 0V64a24 24 0 0 1 24-24h32a24 24 0 0 1 24 24 8 8 0 0 0 8 8h64a8 8 0 0 0 8-8 8 8 0 0 1 16 0v24h-88a8 8 0 0 0-8 8 40 40 0 0 0 40 40h54.62A24 24 0 0 1 416 152h-96a24 24 0 0 1-24-24 8 8 0 0 0-16 0v160a40 40 0 0 0 40 40h64a24 24 0 0 1 24 24zm0-104h-88a8 8 0 0 0 0 16h55.9a196.07 196.07 0 0 1-4.54 48H320a24 24 0 0 1-24-24V160a39.81 39.81 0 0 0 24 8h27.41a227.7 227.7 0 0 1 20.69 48H320a8 8 0 0 0 0 16h88zm64 2.67A13.35 13.35 0 0 1 458.67 264h-21.34A13.34 13.34 0 0 1 424 251v-21.67A13.35 13.35 0 0 1 437.35 216h21.32A13.35 13.35 0 0 1 472 229.33z"></path><path fill="#94d4f0" d="M472 229.33v21.34A13.35 13.35 0 0 1 458.67 264h-21.34A13.34 13.34 0 0 1 424 251v-21.67A13.35 13.35 0 0 1 437.35 216h21.32A13.35 13.35 0 0 1 472 229.33zM312 256a8 8 0 0 0 8 8h55.9a196.07 196.07 0 0 1-4.54 48H320a24 24 0 0 1-24-24V160a39.81 39.81 0 0 0 24 8h27.41a227.7 227.7 0 0 1 20.69 48H320a8 8 0 0 0 0 16h88v16h-88a8 8 0 0 0-8 8zM104 392h272v80H104z"></path><path fill="#94d4f0" d="M352 88h88V64a8 8 0 0 0-16 0 8 8 0 0 1-8 8h-64a8 8 0 0 1-8-8 24 24 0 0 0-24-24h-32a24 24 0 0 0-24 24v240a56 56 0 1 1-112 0 40 40 0 0 0-40-40H81.32l27.35 9.12A40 40 0 0 1 136 311.06v23.07A41.91 41.91 0 0 0 177.89 376H384a8 8 0 0 1 8 8v28.69l16 16V352a24 24 0 0 0-24-24h-64a40 40 0 0 1-40-40V128a8 8 0 0 1 16 0 24 24 0 0 0 24 24h96a24 24 0 0 0 22.62-16H384a40 40 0 0 1-40-40 8 8 0 0 1 8-8Zm-48 8a16 16 0 1 1 16-16 16 16 0 0 1-16 16Z"></path><circle cx="304" cy="80" r="16" fill="#0d77bd"></circle></svg>